<?xml version="1.0" standalone="no"?>
<!DOCTYPE svg PUBLIC "-//W3C//DTD SVG 20010904//EN"
 "http://www.w3.org/TR/2001/REC-SVG-20010904/DTD/svg10.dtd">
<svg version="1.0" xmlns="http://www.w3.org/2000/svg"
 width="1170.000000pt" height="1121.000000pt" viewBox="0 0 1170.000000 1121.000000"
 preserveAspectRatio="xMidYMid meet">

<g transform="translate(0.000000,1121.000000) scale(0.100000,-0.100000)"
fill="#000000" stroke="none">
<path d="M5137 10014 c-1 -1 -273 -4 -605 -6 -331 -3 -604 -7 -607 -9 -10 -11
-11 -681 0 -687 5 -4 390 -7 855 -7 882 0 862 1 1000 -42 25 -8 62 -25 82 -39
21 -13 40 -24 44 -24 11 0 88 -63 129 -106 73 -77 91 -99 108 -136 10 -20 22
-40 27 -43 6 -3 10 -46 10 -95 0 -90 -17 -147 -69 -229 -21 -33 -24 -54 -23
-150 1 -70 5 -90 24 -118 16 -23 31 -33 49 -33 50 0 58 -46 17 -99 -10 -13
-18 -30 -18 -38 0 -27 31 -73 48 -73 18 0 102 82 102 100 0 5 6 13 13 17 28
18 71 107 93 196 18 69 16 272 -4 317 -5 14 -20 50 -32 80 -37 89 -69 158 -77
162 -5 1 -19 25 -33 52 -25 50 -204 246 -224 246 -6 0 -22 10 -36 23 -23 21
-137 81 -185 97 -11 4 -31 12 -45 18 -29 12 -55 18 -170 37 -65 10 -160 13
-400 9 -353 -4 -418 -5 -850 -1 l-305 2 -3 224 c-1 124 1 228 5 232 5 5 379 9
833 9 l825 1 95 -26 c52 -14 109 -29 125 -32 17 -3 35 -9 40 -13 6 -4 28 -13
50 -20 51 -16 179 -80 183 -91 2 -5 10 -9 17 -9 32 0 207 -132 305 -230 109
-109 155 -164 180 -215 8 -16 21 -38 29 -47 15 -19 54 -107 77 -178 9 -25 20
-54 25 -65 5 -11 11 -42 14 -70 2 -27 7 -81 11 -119 9 -87 -14 -256 -46 -341
-29 -79 -76 -183 -87 -196 -7 -8 -13 -20 -13 -25 0 -5 -8 -17 -17 -26 -10 -9
-22 -23 -28 -30 -5 -7 -28 -35 -51 -63 -40 -48 -41 -51 -25 -75 49 -77 88 -90
118 -40 9 17 21 30 25 30 4 0 8 6 8 14 0 8 5 16 11 18 12 4 91 125 110 168 6
14 15 32 20 40 5 8 12 22 15 30 3 8 11 29 19 45 23 53 48 157 60 255 17 131 8
364 -15 410 -5 8 -18 46 -30 85 -12 38 -35 96 -51 130 -16 33 -29 63 -29 68 0
8 -39 67 -51 77 -3 3 -12 17 -20 32 -40 76 -236 276 -345 353 -95 66 -278 156
-379 185 -22 6 -62 18 -90 26 -148 44 -262 56 -553 58 -156 0 -284 0 -285 0z"/>
<path d="M4665 8893 c-22 -2 -46 -11 -52 -20 -10 -13 -13 -333 -13 -1437 -1
-782 -2 -1454 -3 -1494 -3 -84 2 -90 75 -94 23 -1 293 -1 598 -1 582 0 845 7
864 22 6 4 27 11 47 15 21 4 42 13 49 21 7 8 18 15 25 15 21 0 106 51 165 98
66 53 184 183 211 232 11 19 28 49 39 65 18 26 38 67 70 140 5 11 12 43 15 70
13 104 14 99 -34 114 -42 13 -45 13 -61 -10 -10 -12 -20 -37 -23 -55 -6 -37
-48 -133 -99 -226 -27 -49 -126 -162 -184 -208 -47 -38 -120 -84 -187 -118
l-72 -37 -645 -3 c-354 -2 -655 0 -667 3 l-23 5 -1 1108 c-1 1815 -1 1806 -42
1800 -7 -1 -30 -3 -52 -5z"/>
<path d="M3937 8573 c-4 -3 -7 -621 -8 -1372 -2 -1334 -4 -1723 -11 -1906 -3
-90 -3 -90 25 -103 23 -11 227 -13 1123 -12 602 0 1125 3 1162 6 37 3 76 6 87
7 10 1 24 -7 29 -19 18 -34 39 -49 71 -51 113 -6 352 -2 390 7 26 6 55 8 64 5
10 -3 37 2 61 10 23 8 53 15 65 15 37 0 196 56 309 109 175 82 342 225 466
397 67 94 158 269 179 344 7 25 17 55 22 67 59 152 70 505 24 712 -35 153 -83
276 -152 389 -18 29 -33 56 -34 60 0 4 -16 27 -35 52 -18 25 -42 56 -51 69
-10 13 -47 56 -83 94 -169 181 -386 313 -620 378 -129 36 -290 59 -290 42 0
-5 26 -41 58 -79 48 -57 64 -70 92 -72 19 -2 40 -8 47 -14 7 -5 16 -7 21 -4
13 8 193 -58 269 -100 79 -43 159 -97 190 -128 11 -11 51 -50 88 -86 118 -116
196 -222 275 -380 41 -81 87 -255 104 -389 13 -111 4 -323 -20 -426 -20 -88
-60 -205 -91 -262 -12 -24 -23 -48 -23 -53 0 -15 -111 -174 -166 -237 -95
-107 -262 -233 -359 -270 -16 -6 -59 -23 -95 -36 -76 -29 -223 -53 -365 -61
-55 -3 -136 -9 -180 -12 -68 -6 -78 -5 -68 7 6 8 38 23 70 33 32 11 65 25 73
31 8 6 38 22 65 35 65 31 167 102 203 140 16 16 33 30 37 30 15 0 175 178 175
195 0 4 11 20 25 37 14 16 25 35 25 42 0 7 9 21 20 31 11 10 20 22 20 27 0 8
11 34 60 143 37 83 41 98 67 250 26 160 16 451 -18 517 -5 10 -9 28 -9 42 0
41 -67 194 -125 286 -28 44 -130 150 -144 150 -19 0 -12 -33 24 -107 19 -40
35 -77 35 -83 0 -6 8 -25 17 -43 9 -18 20 -48 24 -67 4 -19 15 -64 24 -100 63
-252 68 -490 13 -670 -10 -36 -24 -81 -30 -100 -30 -101 -109 -244 -178 -320
-76 -85 -98 -107 -145 -146 -60 -48 -155 -112 -210 -139 -22 -12 -49 -26 -60
-32 -11 -6 -40 -19 -65 -28 -25 -10 -59 -24 -77 -31 -17 -8 -38 -14 -46 -14
-9 0 -19 -4 -22 -10 -3 -5 -19 -10 -35 -10 -16 0 -31 -4 -34 -9 -3 -4 -29 -12
-58 -16 -29 -4 -64 -9 -78 -12 -59 -10 -2059 -13 -2065 -3 -4 6 -8 407 -10
893 -7 1492 -14 2316 -21 2342 -6 23 -11 25 -58 25 -29 0 -56 -3 -59 -7z"/>
<path d="M5394 8533 c-3 -10 -15 -41 -26 -70 -11 -28 -19 -71 -18 -95 3 -64 1
-78 -10 -78 -5 0 -12 11 -16 25 -8 31 -29 32 -45 3 -9 -16 -8 -34 2 -76 10
-42 10 -58 1 -73 -28 -44 -15 -72 62 -136 24 -20 25 -25 14 -43 -12 -19 -9
-24 27 -56 22 -19 76 -53 120 -74 154 -76 269 -78 455 -8 81 31 88 56 20 73
-25 7 -69 24 -99 39 -30 14 -61 26 -68 26 -7 0 -31 11 -53 25 -22 14 -42 25
-44 25 -14 0 -96 98 -95 115 0 19 0 19 10 2 25 -42 122 -117 153 -117 7 0 17
-5 23 -11 12 -12 112 -50 183 -71 19 -6 40 -14 47 -20 25 -20 36 3 30 66 -7
80 -27 118 -107 196 -80 79 -135 114 -167 105 -18 -4 -33 4 -67 35 -37 34 -86
54 -86 34 0 -13 65 -124 72 -124 5 0 8 -7 8 -16 0 -11 -6 -14 -21 -9 -34 11
-67 55 -84 112 -16 51 -38 73 -52 50 -10 -16 -7 -128 4 -136 12 -9 43 -71 35
-71 -12 0 -56 61 -68 94 -6 17 -23 67 -39 111 -44 126 -63 165 -80 165 -9 0
-18 -8 -21 -17z m433 -279 c21 -25 23 -44 3 -44 -7 0 -40 55 -40 67 0 10 17 0
37 -23z m-347 -9 c0 -43 57 -141 112 -194 59 -57 57 -67 -12 -75 -25 -3 -36
-3 -25 0 39 11 39 23 -3 66 -23 23 -42 46 -42 51 0 4 -7 15 -15 23 -15 16 -45
105 -45 136 0 10 7 18 15 18 9 0 15 -9 15 -25z m45 -265 c3 -5 -1 -10 -10 -10
-9 0 -13 5 -10 10 3 6 8 10 10 10 2 0 7 -4 10 -10z"/>
<path d="M5730 7642 c-97 -9 -232 -62 -324 -125 -48 -33 -116 -100 -116 -114
0 -6 23 -23 50 -37 53 -27 65 -26 185 3 34 8 95 -1 172 -25 l53 -17 42 29 c67
47 92 63 108 71 8 4 40 24 72 45 32 21 69 43 84 48 19 8 23 14 16 23 -9 11
-75 46 -142 77 -27 12 -158 27 -200 22z"/>
<path d="M6100 7402 c-8 -2 -25 -14 -38 -26 -31 -27 -102 -132 -102 -149 0 -7
-5 -18 -11 -24 -7 -7 -12 -53 -13 -110 -1 -83 2 -105 22 -145 12 -27 26 -48
31 -48 13 0 39 32 50 63 6 15 16 27 22 27 11 0 11 -6 -10 -104 -11 -48 -9 -69
9 -111 5 -11 11 -33 15 -49 6 -27 7 -28 25 -11 10 9 20 29 22 44 3 29 21 32
27 4 4 -23 30 -53 46 -53 7 0 16 14 21 32 l9 31 25 -36 c18 -27 28 -33 37 -25
18 15 -10 116 -36 132 -9 6 -61 101 -61 111 0 3 4 5 9 5 9 0 41 -47 69 -102
38 -74 82 -75 82 -1 0 42 1 45 13 28 8 -10 19 -15 25 -11 13 8 14 119 1 171
-5 22 -12 51 -15 65 -7 36 -33 89 -63 130 -40 55 -120 132 -129 126 -5 -3 -9
-31 -10 -63 0 -32 -8 -85 -17 -118 -9 -33 -19 -75 -22 -92 -3 -19 -11 -33 -19
-33 -7 0 -17 -15 -22 -32 -7 -25 -11 -29 -16 -16 -4 9 0 30 8 47 9 16 16 39
16 49 0 10 7 34 16 52 12 23 17 62 18 131 1 98 -6 121 -34 111z m75 -403 c6
-19 0 -38 -9 -28 -10 12 -16 49 -7 49 5 0 13 -9 16 -21z m42 -211 c-3 -8 -6
-5 -6 6 -1 11 2 17 5 13 3 -3 4 -12 1 -19z"/>
<path d="M5760 7307 c-25 -12 -47 -25 -50 -28 -3 -3 -26 -18 -53 -32 -90 -50
-192 -144 -257 -237 -22 -31 -75 -131 -104 -198 -16 -36 5 -47 92 -47 79 1 83
2 211 70 46 25 121 98 121 120 0 7 7 18 15 25 8 7 15 19 15 27 0 8 6 29 13 46
28 67 40 104 53 172 22 118 21 121 -56 82z"/>
<path d="M5767 6765 c-10 -7 -14 -16 -9 -19 5 -3 15 1 22 9 17 21 9 27 -13 10z"/>
<path d="M6400 6770 c0 -5 5 -10 10 -10 6 0 10 5 10 10 0 6 -4 10 -10 10 -5 0
-10 -4 -10 -10z"/>
<path d="M5700 6709 c0 -5 5 -7 10 -4 6 3 10 8 10 11 0 2 -4 4 -10 4 -5 0 -10
-5 -10 -11z"/>
<path d="M6400 6669 c0 -5 5 -7 10 -4 6 3 10 8 10 11 0 2 -4 4 -10 4 -5 0 -10
-5 -10 -11z"/>
<path d="M6400 6640 c0 -5 5 -10 11 -10 5 0 7 5 4 10 -3 6 -8 10 -11 10 -2 0
-4 -4 -4 -10z"/>
<path d="M7238 5714 c-4 -3 4 -17 18 -31 33 -33 43 -22 12 12 -13 14 -27 23
-30 19z"/>
<path d="M7290 5710 c0 -5 5 -10 10 -10 6 0 10 5 10 10 0 6 -4 10 -10 10 -5 0
-10 -4 -10 -10z"/>
<path d="M7180 5540 c0 -5 5 -10 11 -10 5 0 7 5 4 10 -3 6 -8 10 -11 10 -2 0
-4 -4 -4 -10z"/>
<path d="M7860 5520 c0 -5 5 -10 10 -10 6 0 10 5 10 10 0 6 -4 10 -10 10 -5 0
-10 -4 -10 -10z"/>
<path d="M7120 5500 c0 -5 5 -10 10 -10 6 0 10 -9 10 -20 0 -22 -16 -27 -23
-7 -2 7 -18 -3 -40 -27 -20 -22 -45 -40 -55 -41 -22 -1 -78 -43 -69 -51 3 -4
13 1 22 10 11 10 25 14 41 10 17 -4 26 -1 30 10 3 9 12 16 20 16 8 0 14 7 14
16 0 8 7 23 16 31 13 13 17 14 24 3 7 -11 11 -10 24 3 9 8 16 23 16 31 0 9 5
16 11 16 5 0 7 5 3 11 -4 8 -9 7 -16 -2 -7 -11 -11 -11 -15 -1 -6 14 -23 16
-23 2z"/>
<path d="M6915 5420 c3 -5 8 -10 11 -10 2 0 4 5 4 10 0 6 -5 10 -11 10 -5 0
-7 -4 -4 -10z"/>
<path d="M6950 5420 c0 -5 5 -10 10 -10 6 0 10 5 10 10 0 6 -4 10 -10 10 -5 0
-10 -4 -10 -10z"/>
<path d="M7805 5420 c3 -5 8 -10 11 -10 2 0 4 5 4 10 0 6 -5 10 -11 10 -5 0
-7 -4 -4 -10z"/>
<path d="M7740 5355 c7 -8 17 -15 22 -15 6 0 5 7 -2 15 -7 8 -17 15 -22 15 -6
0 -5 -7 2 -15z"/>
<path d="M7595 5350 c-3 -5 -1 -10 4 -10 6 0 11 5 11 10 0 6 -2 10 -4 10 -3 0
-8 -4 -11 -10z"/>
<path d="M7635 5350 c-3 -5 -1 -10 4 -10 6 0 11 5 11 10 0 6 -2 10 -4 10 -3 0
-8 -4 -11 -10z"/>
<path d="M6875 5330 c-3 -5 -1 -10 4 -10 6 0 11 5 11 10 0 6 -2 10 -4 10 -3 0
-8 -4 -11 -10z"/>
<path d="M7710 5333 c0 -13 29 -38 35 -31 3 3 -4 13 -15 23 -11 10 -20 13 -20
8z"/>
<path d="M7615 5310 c-3 -5 -1 -10 4 -10 6 0 11 5 11 10 0 6 -2 10 -4 10 -3 0
-8 -4 -11 -10z"/>
<path d="M7655 5310 c-3 -5 -1 -10 4 -10 6 0 11 5 11 10 0 6 -2 10 -4 10 -3 0
-8 -4 -11 -10z"/>
<path d="M7690 5290 c0 -5 5 -10 10 -10 6 0 10 5 10 10 0 6 -4 10 -10 10 -5 0
-10 -4 -10 -10z"/>
<path d="M7531 5267 c-18 -18 -13 -31 6 -16 13 11 17 11 20 2 5 -14 33 -18 33
-5 0 15 -48 30 -59 19z"/>
<path d="M7650 5270 c0 -5 5 -10 10 -10 6 0 10 5 10 10 0 6 -4 10 -10 10 -5 0
-10 -4 -10 -10z"/>
<path d="M7610 5225 c-8 -9 -8 -15 -2 -15 12 0 26 19 19 26 -2 2 -10 -2 -17
-11z"/>
<path d="M7415 5189 c-11 -17 1 -21 15 -4 8 9 8 15 2 15 -6 0 -14 -5 -17 -11z"/>
<path d="M7530 5185 c-7 -8 -8 -15 -2 -15 5 0 15 7 22 15 7 8 8 15 2 15 -5 0
-15 -7 -22 -15z"/>
<path d="M7350 5160 c20 -17 27 -50 12 -50 -4 0 -13 5 -19 11 -6 6 -16 8 -22
5 -14 -9 -15 -56 -1 -56 6 0 10 -7 10 -15 0 -27 16 -16 30 20 13 34 30 47 30
23 0 -6 3 -9 6 -5 3 3 -1 20 -10 38 -11 22 -13 35 -6 39 6 4 -3 7 -19 7 -29 0
-30 -1 -11 -17z m0 -70 c0 -11 -4 -20 -10 -20 -5 0 -10 9 -10 20 0 11 5 20 10
20 6 0 10 -9 10 -20z"/>
<path d="M7480 5164 c0 -11 -6 -14 -22 -8 -21 6 -21 6 -4 -11 15 -15 19 -16
27 -4 8 12 10 12 18 -1 6 -8 14 -11 18 -6 4 5 2 11 -4 13 -7 3 -13 11 -13 19
0 8 -4 14 -10 14 -5 0 -10 -7 -10 -16z"/>
<path d="M7218 5145 c-4 -4 -3 -16 3 -27 7 -13 6 -26 -3 -45 -15 -31 -42 -45
-31 -16 5 14 2 14 -14 -4 -27 -30 -33 -29 -33 7 0 28 3 30 35 30 36 0 43 8 24
27 -12 12 -45 0 -61 -22 -5 -6 -12 -5 -17 5 -6 8 -11 12 -13 10 -2 -3 -12 -15
-22 -27 -18 -22 -19 -24 -1 -43 11 -13 25 -18 37 -14 12 3 18 0 18 -10 0 -9 5
-16 10 -16 6 0 10 7 10 15 0 17 12 19 26 5 7 -7 20 -3 39 12 26 20 28 21 22 3
-8 -18 -7 -18 11 -2 11 10 26 15 36 11 18 -7 23 20 6 31 -5 3 -10 17 -10 29 0
32 -27 55 -36 31 -4 -9 -1 -20 6 -25 6 -4 10 -16 7 -26 -4 -17 -6 -17 -12 4
-4 12 -11 22 -15 22 -5 0 -10 9 -12 21 -2 11 -6 18 -10 14z m-98 -65 c0 -5 -5
-10 -11 -10 -8 0 -7 -5 1 -15 7 -9 10 -18 6 -22 -3 -4 -12 2 -20 12 -10 14
-11 22 -2 31 13 16 26 18 26 4z"/>
<path d="M6210 5100 c0 -5 5 -10 10 -10 6 0 10 5 10 10 0 6 -4 10 -10 10 -5 0
-10 -4 -10 -10z"/>
<path d="M6250 5089 c0 -11 5 -17 10 -14 6 3 10 13 10 21 0 8 -4 14 -10 14 -5
0 -10 -9 -10 -21z"/>
<path d="M6290 5100 c0 -5 5 -10 12 -10 6 0 22 -10 35 -22 22 -20 23 -21 23
-2 0 11 -12 24 -27 32 -33 15 -43 15 -43 2z"/>
<path d="M6020 5080 c0 -5 5 -10 10 -10 6 0 10 5 10 10 0 6 -4 10 -10 10 -5 0
-10 -4 -10 -10z"/>
<path d="M6080 5080 c0 -5 5 -10 10 -10 6 0 10 5 10 10 0 6 -4 10 -10 10 -5 0
-10 -4 -10 -10z"/>
<path d="M6390 5075 c-14 -16 -10 -18 14 -9 9 3 16 10 16 15 0 14 -16 11 -30
-6z"/>
<path d="M6863 5056 c-22 -10 -32 -36 -15 -36 8 0 46 41 40 44 -2 1 -13 -3
-25 -8z"/>
<path d="M6915 5060 c3 -5 8 -10 11 -10 2 0 4 5 4 10 0 6 -5 10 -11 10 -5 0
-7 -4 -4 -10z"/>
<path d="M6955 5060 c3 -5 8 -10 11 -10 2 0 4 5 4 10 0 6 -5 10 -11 10 -5 0
-7 -4 -4 -10z"/>
<path d="M6990 5059 c0 -5 5 -7 10 -4 6 3 10 8 10 11 0 2 -4 4 -10 4 -5 0 -10
-5 -10 -11z"/>
<path d="M7026 5061 c-4 -5 -2 -12 3 -15 5 -4 12 -2 15 3 4 5 2 12 -3 15 -5 4
-12 2 -15 -3z"/>
<path d="M5307 5052 c-15 -2 -25 -8 -22 -13 8 -12 62 -12 69 0 8 12 -12 17
-47 13z"/>
<path d="M5742 5039 c2 -7 10 -15 17 -17 8 -3 12 1 9 9 -2 7 -10 15 -17 17 -8
3 -12 -1 -9 -9z"/>
<path d="M6005 5040 c3 -5 8 -10 11 -10 2 0 4 5 4 10 0 6 -5 10 -11 10 -5 0
-7 -4 -4 -10z"/>
<path d="M6420 5039 c0 -5 5 -7 10 -4 6 3 10 8 10 11 0 2 -4 4 -10 4 -5 0 -10
-5 -10 -11z"/>
<path d="M6570 5036 c0 -8 6 -16 13 -19 9 -3 9 -7 -2 -20 -22 -27 3 -20 29 8
13 14 34 25 47 25 13 0 23 5 23 10 0 6 -16 10 -35 10 -24 0 -35 -5 -35 -15 0
-8 -4 -15 -10 -15 -5 0 -10 7 -10 15 0 8 -4 15 -10 15 -5 0 -10 -6 -10 -14z"/>
<path d="M6700 5035 c0 -17 2 -18 24 -9 23 9 20 24 -4 24 -11 0 -20 -7 -20
-15z"/>
<path d="M6800 5025 c0 -14 5 -25 10 -25 6 0 10 11 10 25 0 14 -4 25 -10 25
-5 0 -10 -11 -10 -25z"/>
<path d="M5510 5030 c0 -5 5 -10 11 -10 5 0 7 5 4 10 -3 6 -8 10 -11 10 -2 0
-4 -4 -4 -10z"/>
<path d="M5700 5024 c0 -8 5 -12 10 -9 6 4 8 11 5 16 -9 14 -15 11 -15 -7z"/>
<path d="M6305 5031 c-3 -5 -1 -12 5 -16 5 -3 10 1 10 9 0 18 -6 21 -15 7z"/>
<path d="M6481 5024 c0 -11 3 -14 6 -6 3 7 2 16 -1 19 -3 4 -6 -2 -5 -13z"/>
<path d="M6744 5025 c-4 -8 -10 -12 -15 -9 -5 3 -9 1 -9 -4 0 -5 14 -9 30 -9
17 0 30 6 30 13 0 18 -30 26 -36 9z"/>
<path d="M6515 5010 c-27 -30 -12 -34 15 -5 13 14 19 25 13 25 -5 0 -18 -9
-28 -20z"/>
<path d="M6880 5020 c0 -5 4 -10 9 -10 5 0 16 -3 25 -6 11 -4 16 -1 16 10 0
10 -9 16 -25 16 -14 0 -25 -4 -25 -10z"/>
<path d="M5890 5013 c0 -5 10 -19 23 -31 18 -17 26 -19 35 -10 7 7 12 17 12
22 0 6 -5 5 -12 -2 -9 -9 -17 -7 -35 10 -13 12 -23 17 -23 11z"/>
<path d="M5540 5000 c-8 -5 -11 -12 -7 -16 4 -4 13 -2 19 4 15 15 7 24 -12 12z"/>
<path d="M5593 4993 c9 -9 20 -13 24 -9 4 4 1 11 -7 16 -25 16 -35 11 -17 -7z"/>
<path d="M6677 4994 c3 -7 9 -14 14 -14 14 0 10 17 -5 23 -10 4 -13 1 -9 -9z"/>
<path d="M5300 4990 c0 -5 5 -10 10 -10 6 0 10 5 10 10 0 6 -4 10 -10 10 -5 0
-10 -4 -10 -10z"/>
<path d="M5340 4990 c0 -5 5 -10 11 -10 5 0 7 5 4 10 -3 6 -8 10 -11 10 -2 0
-4 -4 -4 -10z"/>
<path d="M5375 4990 c-3 -5 -1 -10 4 -10 6 0 11 5 11 10 0 6 -2 10 -4 10 -3 0
-8 -4 -11 -10z"/>
<path d="M5415 4990 c-3 -5 -1 -10 4 -10 6 0 11 5 11 10 0 6 -2 10 -4 10 -3 0
-8 -4 -11 -10z"/>
<path d="M5490 4990 c0 -5 5 -10 11 -10 5 0 7 5 4 10 -3 6 -8 10 -11 10 -2 0
-4 -4 -4 -10z"/>
<path d="M5985 4990 c-3 -5 -1 -10 4 -10 6 0 11 5 11 10 0 6 -2 10 -4 10 -3 0
-8 -4 -11 -10z"/>
<path d="M6020 4990 c0 -5 5 -10 10 -10 6 0 10 5 10 10 0 6 -4 10 -10 10 -5 0
-10 -4 -10 -10z"/>
<path d="M6530 4990 c0 -5 5 -10 10 -10 6 0 10 5 10 10 0 6 -4 10 -10 10 -5 0
-10 -4 -10 -10z"/>
<path d="M6970 4990 c0 -5 5 -10 10 -10 6 0 10 5 10 10 0 6 -4 10 -10 10 -5 0
-10 -4 -10 -10z"/>
<path d="M6340 4970 c0 -5 5 -10 10 -10 6 0 10 5 10 10 0 6 -4 10 -10 10 -5 0
-10 -4 -10 -10z"/>
<path d="M6915 4970 c-3 -5 -1 -10 4 -10 6 0 11 5 11 10 0 6 -2 10 -4 10 -3 0
-8 -4 -11 -10z"/>
<path d="M2600 3676 c0 -9 20 -15 63 -20 68 -7 104 -27 127 -72 22 -44 22
-1144 0 -1188 -24 -47 -63 -69 -130 -74 -50 -4 -60 -8 -58 -21 3 -14 43 -16
428 -15 351 1 439 4 503 17 194 41 324 172 335 342 5 83 -7 134 -47 197 -38
60 -108 110 -192 139 l-65 22 57 29 c117 58 183 162 183 288 0 179 -127 310
-346 354 -107 22 -858 24 -858 2z m808 -91 c80 -36 146 -106 167 -178 19 -63
19 -101 1 -161 -29 -96 -90 -155 -187 -182 -56 -15 -319 -22 -359 -9 -20 6
-20 13 -18 278 l3 272 30 7 c17 4 91 6 165 4 125 -2 140 -4 198 -31z m-50
-630 c117 -28 195 -82 240 -169 22 -43 26 -64 27 -131 0 -95 -18 -139 -83
-202 -71 -69 -131 -87 -297 -88 -77 0 -161 4 -187 8 l-48 8 0 288 c0 158 3
291 7 294 13 13 277 7 341 -8z"/>
<path d="M5323 3461 c-48 -101 -120 -187 -201 -238 -29 -19 -51 -40 -49 -46 2
-7 33 -14 75 -17 l71 -5 4 -365 c3 -318 6 -370 21 -405 33 -77 88 -115 166
-115 83 0 169 60 216 153 l24 47 -24 0 c-16 0 -27 -7 -31 -21 -9 -28 -63 -59
-102 -59 -19 0 -43 9 -60 24 l-28 24 -3 361 -3 361 111 0 110 0 0 40 0 40
-110 0 -110 0 0 155 c0 141 -2 155 -17 155 -13 -1 -31 -28 -60 -89z"/>
<path d="M5792 3202 c-100 -41 -132 -59 -129 -71 2 -9 9 -15 17 -13 48 11 92
5 113 -16 22 -22 22 -26 25 -351 4 -373 1 -390 -62 -416 -20 -8 -47 -15 -61
-15 -18 0 -25 -5 -25 -20 0 -20 5 -20 242 -18 214 3 243 5 246 19 2 12 -7 18
-38 22 -48 6 -83 27 -107 64 -16 24 -18 59 -21 301 l-3 273 26 45 c42 72 84
114 113 114 14 0 40 -11 59 -26 50 -38 88 -49 124 -34 53 22 73 88 43 140 -34
56 -115 77 -187 46 -37 -15 -126 -106 -153 -157 l-19 -34 -3 103 -3 102 -32
-1 c-18 0 -92 -26 -165 -57z"/>
<path d="M6663 3241 c-116 -40 -183 -111 -191 -205 -4 -45 -1 -56 21 -81 34
-40 90 -41 123 -1 20 22 24 38 24 89 0 111 58 164 168 155 99 -9 143 -68 150
-203 l4 -80 -135 -53 c-317 -126 -425 -239 -389 -411 25 -118 106 -185 222
-185 78 1 111 14 213 88 43 31 80 56 82 56 3 0 8 -19 11 -42 22 -136 164 -135
288 3 28 31 46 61 46 75 0 32 -10 30 -50 -11 -41 -42 -83 -47 -102 -12 -8 15
-14 118 -18 352 -6 365 -5 362 -74 423 -20 17 -59 38 -88 47 -73 21 -238 20
-305 -4z m275 -771 c-51 -43 -142 -83 -185 -83 -98 0 -161 100 -139 218 8 42
62 106 121 143 22 14 80 42 130 63 l90 38 3 -180 c2 -177 2 -181 -20 -199z"/>
<path d="M7565 3236 c-60 -27 -131 -103 -145 -155 -15 -53 -12 -153 5 -194 20
-49 77 -102 155 -144 245 -134 282 -161 306 -219 45 -108 -26 -204 -151 -204
-128 1 -225 80 -274 227 -11 33 -26 59 -35 61 -14 3 -16 -17 -16 -167 0 -185
2 -189 53 -157 19 12 32 11 102 -6 164 -40 288 -23 384 52 67 53 101 123 101
209 -1 136 -55 196 -282 312 -157 80 -211 120 -229 166 -25 66 3 138 66 167
59 29 162 19 217 -20 46 -32 89 -99 112 -174 7 -26 20 -46 30 -48 14 -3 16 13
16 157 0 151 -1 161 -19 161 -10 0 -21 -7 -25 -15 -7 -19 -54 -19 -126 0 -85
23 -185 19 -245 -9z"/>
<path d="M4004 3226 c-8 -21 4 -36 28 -36 13 0 41 -20 67 -47 39 -40 76 -111
229 -431 100 -211 182 -387 182 -391 0 -19 -90 -224 -112 -256 -12 -19 -37
-42 -55 -52 -30 -16 -34 -16 -108 6 -67 20 -83 22 -116 12 -62 -19 -86 -84
-53 -141 72 -120 284 -61 394 110 17 27 130 290 250 585 121 296 226 548 236
562 9 14 34 32 55 41 26 10 39 21 39 34 0 17 -9 18 -152 16 -131 -3 -153 -5
-156 -19 -2 -12 8 -18 37 -23 47 -7 66 -33 57 -80 -11 -53 -220 -566 -230
-563 -16 5 -255 510 -261 553 -9 53 15 83 73 91 32 4 42 10 40 22 -3 14 -30
16 -221 19 -184 2 -218 0 -223 -12z"/>
<path d="M4110 1561 c-24 -10 -46 -23 -48 -30 -2 -6 3 -9 11 -5 32 12 37 -30
35 -248 -3 -210 -3 -213 -25 -223 -42 -18 -24 -25 63 -25 54 0 83 4 79 10 -3
6 -13 10 -20 10 -30 0 -35 40 -35 284 0 135 -3 246 -7 245 -5 0 -28 -8 -53
-18z"/>
<path d="M4946 1564 c-19 -18 -19 -20 -6 -45 12 -21 40 -25 58 -7 18 18 14 46
-7 58 -25 13 -27 13 -45 -6z"/>
<path d="M8783 1558 c-54 -21 -70 -40 -31 -35 19 2 23 -5 29 -38 5 -22 8 -57
8 -79 1 -33 -1 -37 -16 -30 -40 17 -108 15 -140 -5 -82 -51 -117 -176 -74
-263 40 -80 118 -109 186 -69 44 26 45 26 45 1 0 -25 6 -25 66 2 37 17 44 23
29 26 -11 2 -23 9 -27 16 -4 6 -8 120 -8 254 0 133 -3 242 -7 241 -5 0 -32
-10 -60 -21z m-36 -203 c30 -21 43 -74 43 -172 0 -76 -2 -83 -26 -102 -33 -26
-50 -26 -92 -1 -41 25 -62 73 -62 140 0 113 70 182 137 135z"/>
<path d="M6410 1537 c45 -16 47 -28 49 -243 1 -212 -2 -233 -41 -241 -64 -13
-33 -23 72 -23 72 0 109 4 105 10 -3 6 -14 10 -24 10 -34 0 -41 21 -41 122 l0
97 74 -1 c89 -1 134 21 161 78 29 62 7 129 -59 178 -24 19 -44 21 -179 23
-131 3 -147 1 -117 -10z m241 -45 c26 -23 33 -38 37 -80 4 -49 3 -53 -31 -87
-32 -32 -41 -36 -79 -33 l-43 3 -3 113 -3 112 46 0 c35 0 51 -6 76 -28z"/>
<path d="M7854 1540 c16 -5 33 -15 37 -22 5 -7 9 -110 9 -229 0 -222 -3 -239
-41 -239 -10 0 -21 -5 -24 -10 -4 -7 60 -10 196 -8 l203 3 18 60 c22 74 19 90
-9 42 -12 -19 -33 -43 -46 -52 -31 -20 -153 -31 -189 -16 l-28 11 0 214 c0
231 -1 229 57 246 19 6 -11 8 -92 8 -84 0 -111 -2 -91 -8z"/>
<path d="M8393 1463 c-13 -23 -39 -55 -58 -70 l-35 -28 27 -5 28 -5 3 -145 c3
-163 10 -180 69 -180 24 0 41 8 58 26 26 28 32 44 15 44 -5 0 -10 -4 -10 -9 0
-16 -40 -23 -56 -10 -12 10 -14 37 -12 143 l3 131 38 3 c20 2 37 7 37 12 0 5
-17 10 -37 12 l-38 3 -5 60 -5 60 -22 -42z"/>
<path d="M4735 1460 c-8 -16 -31 -45 -52 -65 l-36 -35 26 0 27 0 0 -129 c0
-126 9 -178 33 -193 25 -16 73 -8 95 15 28 30 30 58 3 33 -11 -10 -28 -16 -38
-14 -16 3 -18 17 -21 146 l-3 142 41 0 c22 0 40 5 40 10 0 6 -18 10 -40 10
l-40 0 0 55 c0 61 -12 70 -35 25z"/>
<path d="M7305 1470 c-3 -10 -26 -40 -50 -65 -42 -43 -43 -45 -20 -45 l25 0 0
-123 c0 -125 10 -184 32 -199 30 -19 76 -8 103 23 29 36 26 52 -6 24 -15 -15
-24 -17 -37 -9 -14 9 -17 32 -20 148 l-3 136 41 0 c22 0 40 5 40 10 0 6 -18
10 -40 10 l-40 0 0 55 c0 55 -13 73 -25 35z"/>
<path d="M2143 1369 c-70 -45 -98 -187 -52 -269 68 -121 226 -97 264 40 6 23
5 23 -19 -7 -38 -46 -86 -60 -133 -36 -47 23 -71 57 -79 111 l-7 42 122 0
c115 0 121 1 121 20 0 30 -26 75 -56 99 -36 28 -117 28 -161 0z m90 -11 c30
-16 46 -39 47 -65 0 -22 -4 -23 -74 -23 -41 0 -77 4 -80 8 -2 4 2 22 11 39 12
26 36 44 71 52 2 1 13 -4 25 -11z"/>
<path d="M2499 1367 c-94 -63 -116 -192 -49 -286 51 -70 151 -79 208 -19 21
23 57 98 47 98 -3 0 -23 -18 -44 -40 -40 -42 -69 -50 -114 -29 -59 27 -90 156
-54 226 29 55 96 67 119 20 4 -9 12 -25 17 -34 11 -24 57 -29 64 -8 10 23 -13
65 -44 81 -43 22 -110 18 -150 -9z"/>
<path d="M2854 1371 c-41 -25 -70 -68 -85 -122 -38 -142 95 -269 223 -215 99
42 138 190 75 285 -45 68 -146 93 -213 52z m105 -15 c41 -22 66 -86 66 -172 0
-87 -22 -127 -73 -132 -44 -5 -71 14 -92 61 -40 94 -33 197 17 236 30 25 45
26 82 7z"/>
<path d="M3402 1365 c-65 -54 -45 -126 48 -176 59 -31 100 -69 100 -93 0 -29
-28 -50 -65 -49 -41 1 -79 30 -100 78 -13 29 -13 28 -14 -31 l-1 -62 69 -7
c73 -7 96 -1 139 38 29 27 30 84 1 121 -12 15 -44 38 -72 52 -93 47 -117 83
-79 117 38 35 112 7 126 -48 11 -43 26 -27 26 28 l0 52 -74 3 c-66 2 -77 0
-104 -23z"/>
<path d="M3747 1368 c-68 -40 -106 -156 -76 -235 13 -34 55 -80 91 -99 67 -35
167 1 208 76 36 65 35 151 -2 207 -48 72 -145 95 -221 51z m128 -31 c61 -61
72 -211 20 -263 -32 -32 -78 -32 -110 0 -50 50 -69 197 -34 255 31 48 80 52
124 8z"/>
<path d="M4933 1372 c-53 -22 -63 -32 -31 -32 14 0 29 -7 32 -16 3 -9 6 -67 6
-129 0 -121 -4 -145 -25 -145 -8 0 -17 -4 -20 -10 -4 -6 23 -10 74 -10 47 0
81 4 81 10 0 6 -7 10 -15 10 -28 0 -35 39 -35 189 0 167 3 161 -67 133z"/>
<path d="M5189 1367 c-40 -27 -74 -84 -83 -139 -25 -156 149 -268 265 -171 94
79 88 245 -10 310 -47 32 -125 32 -172 0z m138 -34 c50 -61 57 -211 13 -258
-63 -67 -155 7 -161 130 -4 86 0 106 31 137 26 25 36 29 63 24 18 -3 42 -18
54 -33z"/>
<path d="M5520 1368 c-43 -20 -44 -21 -20 -27 25 -7 25 -7 28 -144 l3 -137
-26 -10 c-14 -5 -25 -12 -25 -15 0 -3 38 -5 85 -5 47 0 85 4 85 9 0 5 -10 11
-22 13 -22 3 -23 6 -23 127 0 122 0 124 27 144 14 11 39 20 54 20 46 0 54 -24
54 -160 l0 -123 -27 -12 c-27 -12 -27 -13 20 -16 26 -2 67 -2 90 0 42 4 42 4
15 16 -28 11 -28 12 -28 114 -1 57 -5 123 -9 148 -17 83 -84 104 -159 50 l-42
-30 0 30 c0 36 -15 38 -80 8z"/>
<path d="M5953 1378 c-12 -6 -29 -26 -39 -46 -21 -45 -9 -90 31 -115 132 -82
130 -81 130 -117 0 -80 -104 -72 -142 11 -10 21 -21 39 -25 39 -5 0 -8 -26 -8
-59 l0 -58 69 -7 c108 -11 171 26 171 100 0 45 -32 80 -111 119 -50 26 -70 42
-75 60 -9 35 1 53 32 61 41 10 77 -7 99 -49 11 -20 23 -37 28 -37 4 0 7 24 7
53 l0 52 -73 2 c-39 1 -82 -3 -94 -9z"/>
<path d="M4267 1370 c36 -15 43 -43 43 -170 0 -121 0 -122 29 -151 38 -38 76
-38 129 1 23 17 44 30 47 30 3 0 5 -14 5 -31 0 -33 4 -34 79 -1 30 13 32 16
16 20 -11 2 -23 9 -27 16 -4 6 -8 75 -8 154 l0 142 -62 -1 c-48 0 -58 -2 -40
-9 32 -13 42 -49 42 -155 0 -92 0 -94 -31 -119 -36 -30 -79 -34 -102 -8 -14
15 -17 42 -17 155 l0 137 -62 -1 c-47 0 -57 -3 -41 -9z"/>
<path d="M6834 1362 c23 -14 42 -49 96 -177 37 -87 72 -161 77 -162 6 -2 41
71 78 162 41 100 76 172 89 180 19 14 16 15 -39 14 -46 0 -55 -2 -37 -9 12 -5
22 -13 22 -17 0 -19 -86 -223 -93 -220 -11 3 -87 185 -87 209 0 10 10 23 23
28 16 6 -4 9 -68 9 -90 1 -90 1 -61 -17z"/>
<path d="M7484 1086 c-15 -40 21 -80 54 -60 37 24 21 74 -25 74 -13 0 -26 -6
-29 -14z"/>
<path d="M8970 1085 c-15 -18 -4 -52 19 -60 40 -12 70 20 51 56 -13 22 -52 25
-70 4z"/>
</g>
</svg>
